<svg width="80" height="80" viewBox="0 0 80 80" fill="none" xmlns="http://www.w3.org/2000/svg">
  <!-- Background circle with GitHub-style gradient -->
  <defs>
    <radialGradient id="bgGradient" cx="0.5" cy="0.3" r="0.8">
      <stop offset="0%" style="stop-color:#f6f8fa;stop-opacity:1" />
      <stop offset="100%" style="stop-color:#24292f;stop-opacity:1" />
    </radialGradient>
    <linearGradient id="octocatGradient" x1="0%" y1="0%" x2="100%" y2="100%">
      <stop offset="0%" style="stop-color:#24292f;stop-opacity:1" />
      <stop offset="100%" style="stop-color:#586069;stop-opacity:1" />
    </linearGradient>
    <linearGradient id="maskGradient" x1="0%" y1="0%" x2="100%" y2="0%">
      <stop offset="0%" style="stop-color:#0969da;stop-opacity:0.9" />
      <stop offset="100%" style="stop-color:#218bff;stop-opacity:0.9" />
    </linearGradient>
  </defs>
  
  <!-- Main background circle -->
  <circle cx="40" cy="40" r="38" fill="url(#bgGradient)" stroke="#d0d7de" stroke-width="2"/>
  
  <!-- GitHub Octocat-inspired body -->
  <ellipse cx="40" cy="35" rx="18" ry="14" fill="url(#octocatGradient)"/>
  
  <!-- Octocat tentacles/arms -->
  <path d="M22 38 C18 42, 14 46, 16 50 C18 48, 22 44, 26 40" fill="url(#octocatGradient)"/>
  <path d="M58 38 C62 42, 66 46, 64 50 C62 48, 58 44, 54 40" fill="url(#octocatGradient)"/>
  <path d="M26 45 C22 49, 18 53, 20 57 C22 55, 26 51, 30 47" fill="url(#octocatGradient)"/>
  <path d="M54 45 C58 49, 62 53, 60 57 C58 55, 54 51, 50 47" fill="url(#octocatGradient)"/>
  
  <!-- Eyes before mask -->
  <circle cx="33" cy="31" r="3" fill="#f6f8fa"/>
  <circle cx="47" cy="31" r="3" fill="#f6f8fa"/>
  <circle cx="33.5" cy="30.5" r="1.5" fill="#24292f"/>
  <circle cx="47.5" cy="30.5" r="1.5" fill="#24292f"/>
  
  <!-- GitHub-style privacy mask -->
  <rect x="26" y="25" width="28" height="14" rx="7" fill="url(#maskGradient)" opacity="0.95"/>
  
  <!-- Mask eye holes with GitHub styling -->
  <ellipse cx="32" cy="32" rx="4" ry="5" fill="#24292f" opacity="0.8"/>
  <ellipse cx="48" cy="32" rx="4" ry="5" fill="#24292f" opacity="0.8"/>
  
  <!-- Mask strap with GitHub colors -->
  <path d="M26 32 C18 28, 10 30, 6 34" stroke="#0969da" stroke-width="2.5" fill="none"/>
  <path d="M54 32 C62 28, 70 30, 74 34" stroke="#0969da" stroke-width="2.5" fill="none"/>
  
  <!-- GitHub-style mouth -->
  <ellipse cx="40" cy="44" rx="4" ry="2" fill="#24292f"/>
  
  <!-- Privacy/code symbols around the logo -->
  <g opacity="0.7">
    <!-- Code brackets -->
    <path d="M12 20 L8 24 L12 28" stroke="#0969da" stroke-width="2" fill="none"/>
    <path d="M68 20 L72 24 L68 28" stroke="#0969da" stroke-width="2" fill="none"/>
    
    <!-- Lock symbol -->
    <rect x="14" y="58" width="8" height="6" rx="1" fill="#218bff" opacity="0.6"/>
    <path d="M16 58 C16 56, 17 54, 20 54 C23 54, 24 56, 24 58" stroke="#218bff" stroke-width="1.5" fill="none"/>
    
    <!-- Git branch -->
    <circle cx="65" cy="58" r="2" fill="#218bff" opacity="0.6"/>
    <circle cx="65" cy="66" r="2" fill="#218bff" opacity="0.6"/>
    <path d="M65 60 L65 64" stroke="#218bff" stroke-width="1.5"/>
    <path d="M65 62 C68 62, 70 60, 70 58" stroke="#218bff" stroke-width="1.5" fill="none"/>
  </g>
  
  <!-- Subtle glow effect -->
  <circle cx="40" cy="40" r="36" fill="none" stroke="url(#maskGradient)" stroke-width="1" opacity="0.3"/>
</svg>
